<svg width="32" height="29" viewBox="0 0 32 29" fill="none" xmlns="http://www.w3.org/2000/svg">
<path d="M28.587 5.69543H2.76087C1.78837 5.69543 1 6.4838 1 7.4563V26.2389C1 27.2114 1.78837 27.9998 2.76087 27.9998H28.587C29.5595 27.9998 30.3478 27.2114 30.3478 26.2389V7.4563C30.3478 6.4838 29.5595 5.69543 28.587 5.69543Z" stroke="#00053D" stroke-width="2" stroke-linecap="round" stroke-linejoin="round"></path>
<path d="M11.5684 5.69565V2.17391C11.5684 1.86257 11.692 1.56398 11.9122 1.34383C12.1323 1.12368 12.4309 1 12.7423 1H18.6118C18.9232 1 19.2218 1.12368 19.4419 1.34383C19.6621 1.56398 19.7858 1.86257 19.7858 2.17391V5.69565" stroke="#00053D" stroke-width="2" stroke-linecap="round" stroke-linejoin="round"></path>
<path d="M21.9578 15.674C21.9578 15.1217 21.5101 14.674 20.9578 14.674H17.8491V11.5653C17.8491 11.013 17.4014 10.5653 16.8491 10.5653H14.5013C13.949 10.5653 13.5013 11.013 13.5013 11.5653V14.674H10.3926C9.84029 14.674 9.39258 15.1217 9.39258 15.674V18.0218C9.39258 18.5741 9.84029 19.0218 10.3926 19.0218H13.5013V22.1305C13.5013 22.6828 13.949 23.1305 14.5013 23.1305H16.8491C17.4014 23.1305 17.8491 22.6828 17.8491 22.1305V19.0218H20.9578C21.5101 19.0218 21.9578 18.5741 21.9578 18.0218V15.674Z" stroke="#00053D" stroke-width="2" stroke-linecap="round" stroke-linejoin="round"></path>
</svg>