<svg width="29" height="28" viewBox="0 0 29 28" fill="none" xmlns="http://www.w3.org/2000/svg">
<path d="M11.4033 7.24011C9.47257 7.24011 7.62089 8.0071 6.25564 9.37235C4.89039 10.7376 4.1234 12.5893 4.1234 14.52V21.3112C4.12396 22.3113 3.73401 23.2722 3.03662 23.9891L1.19064 25.8975C1.10069 25.9868 1.03904 26.1005 1.01337 26.2246C0.987701 26.3487 0.99916 26.4776 1.04631 26.5952C1.09347 26.7128 1.17422 26.8139 1.2785 26.8859C1.38278 26.9578 1.50595 26.9975 1.63263 26.9999H26.374C26.5007 26.9975 26.6238 26.9578 26.7281 26.8859C26.8324 26.8139 26.9131 26.7128 26.9603 26.5952C27.0074 26.4776 27.0189 26.3487 26.9932 26.2246C26.9676 26.1005 26.9059 25.9868 26.816 25.8975L24.97 23.9891C24.2726 23.2722 23.8826 22.3113 23.8832 21.3112V14.52C23.8832 12.5893 23.1162 10.7376 21.751 9.37235C20.3857 8.0071 18.534 7.24011 16.6033 7.24011" stroke="#00053D" stroke-width="2" stroke-linecap="round" stroke-linejoin="round"></path>
<path d="M7 15.1999C7 13.8208 7.54785 12.4982 8.52303 11.523C9.49821 10.5478 10.8208 10 12.1999 10" stroke="#00053D" stroke-width="2" stroke-linecap="round" stroke-linejoin="round"></path>
<path d="M16.7777 7L18.8166 3.3325C18.939 3.08667 19.003 2.79623 18.9999 2.5C18.9999 2.10218 18.8828 1.72064 18.6745 1.43934C18.4661 1.15803 18.1835 1 17.8888 1C16.9166 1 16.9166 2.5 15.9444 2.5C14.9722 2.5 14.9722 1 13.9944 1C13.0166 1 13.0277 2.5 12.0555 2.5C11.0833 2.5 11.0833 1 10.1111 1C9.81644 1 9.53383 1.15803 9.32546 1.43934C9.11708 1.72064 9.00002 2.10218 9.00002 2.5C8.99857 2.79702 9.06448 3.08753 9.18891 3.3325L11.2222 7" stroke="#00053D" stroke-width="2" stroke-linecap="round" stroke-linejoin="round"></path>
<path d="M15.9808 15.001H13.4124C13.0878 14.989 12.7693 15.0868 12.514 15.2769C12.2587 15.467 12.0833 15.7369 12.0192 16.0383C11.9862 16.2192 11.9958 16.4049 12.0472 16.5819C12.0986 16.759 12.1906 16.9232 12.3167 17.0628C12.4428 17.2024 12.5998 17.314 12.7766 17.3896C12.9535 17.4653 13.1457 17.5031 13.3397 17.5004H14.5876C14.9122 17.4884 15.2307 17.5863 15.486 17.7763C15.7413 17.9664 15.9167 18.2363 15.9808 18.5377C16.0138 18.7187 16.0042 18.9043 15.9528 19.0814C15.9014 19.2585 15.8094 19.4226 15.6833 19.5622C15.5572 19.7019 15.4002 19.8134 15.2234 19.8891C15.0465 19.9647 14.8543 20.0025 14.6603 19.9999H12.0192" stroke="#00053D" stroke-width="2" stroke-linecap="round" stroke-linejoin="round"></path>
<path d="M14 13V15" stroke="#00053D" stroke-width="2" stroke-linecap="round" stroke-linejoin="round"></path>
<path d="M14 20V22" stroke="#00053D" stroke-width="2" stroke-linecap="round" stroke-linejoin="round"></path>
</svg>