<svg width="40" height="29" viewBox="0 0 40 29" fill="none" xmlns="http://www.w3.org/2000/svg">
<path d="M15.4165 27.3665L7.13346 19.0834C6.93265 18.8828 6.77333 18.6446 6.66464 18.3824C6.55594 18.1202 6.5 17.8392 6.5 17.5553C6.5 17.2715 6.55594 16.9904 6.66464 16.7282C6.77333 16.466 6.93265 16.2278 7.13346 16.0272L17.3658 5.79487C17.6693 5.491 18.0811 5.32008 18.5105 5.3197H28.1003C28.3868 5.3197 28.6614 5.43348 28.864 5.63601C29.0665 5.83853 29.1803 6.11322 29.1803 6.39963V15.9894C29.1799 16.4189 29.009 16.8307 28.7051 17.1342L18.4728 27.3665C18.2722 27.5673 18.0339 27.7266 17.7717 27.8353C17.5095 27.944 17.2285 28 16.9446 28C16.6608 28 16.3797 27.944 16.1175 27.8353C15.8553 27.7266 15.6171 27.5673 15.4165 27.3665Z" stroke="#00053D" stroke-width="2" stroke-linejoin="round"></path>
<path d="M12.5176 18.2789L20.0771 10.7194" stroke="#00053D" stroke-width="2" stroke-linecap="round" stroke-linejoin="round"></path>
<path d="M23.7802 14.4235L16.2207 21.983" stroke="#00053D" stroke-width="2" stroke-linecap="round" stroke-linejoin="round"></path>
<path d="M25.9414 8.55953V4.77977C25.9414 4.0322 26.1631 3.30143 26.5784 2.67985C26.9937 2.05828 27.5841 1.5738 28.2747 1.28772C28.9654 1.00164 29.7254 0.926785 30.4586 1.07263C31.1918 1.21847 31.8652 1.57847 32.3939 2.10708C32.9225 2.63569 33.2825 3.30917 33.4283 4.04238C33.5742 4.77558 33.4993 5.53555 33.2132 6.22622C32.9271 6.91688 32.4427 7.5072 31.8211 7.92252C31.1995 8.33785 30.4687 8.55953 29.7212 8.55953H29.1812" stroke="#00053D" stroke-width="2" stroke-linecap="round" stroke-linejoin="round"></path>
</svg>