<svg width="44" height="29" viewBox="0 0 44 29" fill="none" xmlns="http://www.w3.org/2000/svg">
<path d="M42.2592 8.68427L22.0007 16.3685L1.74219 8.68427L22.0007 1L42.2592 8.68427Z" stroke="#00053D" stroke-width="2" stroke-linecap="round" stroke-linejoin="round"></path>
<path d="M33.8757 11.8622L22 8.68372" stroke="#00053D" stroke-width="2" stroke-linecap="round" stroke-linejoin="round"></path>
<path d="M33.8737 19.162C34.6453 19.162 35.2708 18.5364 35.2708 17.7648C35.2708 16.9932 34.6453 16.3677 33.8737 16.3677C33.1021 16.3677 32.4766 16.9932 32.4766 17.7648C32.4766 18.5364 33.1021 19.162 33.8737 19.162Z" stroke="#00053D" stroke-width="2" stroke-linecap="round" stroke-linejoin="round"></path>
<path d="M33.8728 16.368V11.8622" stroke="#00053D" stroke-width="2" stroke-linecap="round" stroke-linejoin="round"></path>
<path d="M32.4766 27.5457C32.4766 21.7615 33.8737 19.1628 33.8737 19.1628C33.8737 19.1628 35.2708 21.7615 35.2708 27.5457H32.4766Z" stroke="#00053D" stroke-width="2" stroke-linecap="round" stroke-linejoin="round"></path>
<path d="M10.127 11.8622V22.6551C10.127 25.3586 15.4431 27.5451 22.0026 27.5451C26.6341 27.5451 30.63 26.4553 32.593 24.8626" stroke="#00053D" stroke-width="2" stroke-linecap="round" stroke-linejoin="round"></path>
</svg>